<svg xmlns="http://www.w3.org/2000/svg" viewBox="0 0 2000 1988.5" style="enable-background:new 0 0 2000 1988.5" xml:space="preserve"><defs><filter id="a" filterUnits="userSpaceOnUse" x="0" y="0" width="2000" height="1988.5"><feColorMatrix values="1 0 0 0 0 0 1 0 0 0 0 0 1 0 0 0 0 0 1 0"/></filter></defs><mask maskUnits="userSpaceOnUse" x="0" y="0" width="2000" height="1988.5" id="b"><path d="M1418.6 1980c31.5 12.3 67.4 11.5 99.2-3.8l411.5-198c43.2-20.8 70.7-64.6 70.7-112.6V322.9c0-48-27.5-91.8-70.7-112.6l-411.5-198c-41.7-20.1-90.5-15.2-127.1 11.5-5.2 3.8-10.2 8-14.9 12.7L588 755.2 244.8 494.7c-31.9-24.2-76.6-22.3-106.3 4.7l-110 100.2c-36.3 33-36.3 90.1-.1 123.2L326 994.2 28.4 1265.7c-36.2 33.1-36.2 90.2.1 123.2l110 100.1c29.7 27 74.3 29 106.3 4.7L588 1233.3l787.8 718.7c12.4 12.5 27.1 21.9 42.8 28zm82-1439.5L902.8 994.2l597.8 453.7V540.5z" style="fill-rule:evenodd;clip-rule:evenodd;fill:#fff;filter:url(#a)"/></mask><g style="mask:url(#b)"><path d="M1929.3 210.6 1517.4 12.3c-47.7-23-104.6-13.3-142.1 24.1L27.2 1265.7c-36.3 33.1-36.2 90.2.1 123.2L137.4 1489c29.7 27 74.4 29 106.4 4.7L1867.3 262.1c54.5-41.3 132.7-2.5 132.7 65.9v-4.8c0-48-27.5-91.7-70.7-112.6z" style="fill:#0065a9"/><path d="m1929.3 1777.8-411.8 198.3c-47.7 23-104.6 13.3-142.1-24.1L27.2 722.7c-36.3-33.1-36.2-90.2.1-123.2l110.1-100.1c29.7-27 74.4-29 106.4-4.7l1623.6 1231.7c54.5 41.3 132.7 2.5 132.7-65.9v4.8c-.1 48-27.6 91.7-70.8 112.5z" style="fill:#007acc"/><path d="M1517.4 1976.2c-47.7 22.9-104.7 13.2-142.1-24.2 46.1 46.1 124.9 13.4 124.9-51.7V88.2c0-65.2-78.8-97.8-124.9-51.7 37.4-37.4 94.4-47.1 142.1-24.2l411.8 198c43.3 20.8 70.8 64.6 70.8 112.6v1342.7c0 48-27.5 91.8-70.8 112.6l-411.8 198z" style="fill:#1f9cf0"/><g style="opacity:.25"><linearGradient id="c" gradientUnits="userSpaceOnUse" x1="999.392" y1="1990.482" x2="999.392" y2="2.002" gradientTransform="matrix(1 0 0 -1 0 1990.483)"><stop offset="0" style="stop-color:#fff"/><stop offset="1" style="stop-color:#fff;stop-opacity:0"/></linearGradient><path d="M1417.4 1980c31.5 12.3 67.4 11.5 99.2-3.8l411.5-198c43.2-20.8 70.7-64.6 70.7-112.6V322.9c0-48-27.5-91.8-70.7-112.6l-411.5-198c-41.7-20.1-90.5-15.2-127.1 11.5-5.2 3.8-10.2 8-14.9 12.7L586.7 755.2 243.6 494.7c-31.9-24.2-76.6-22.3-106.3 4.7L27.2 599.6c-36.3 33-36.3 90.1-.1 123.2l297.6 271.5-297.5 271.4c-36.2 33.1-36.2 90.2.1 123.2l110 100.1c29.7 27 74.3 29 106.3 4.7l343.1-260.5 787.8 718.7c12.5 12.6 27.1 22 42.9 28.1zm82-1439.5L901.6 994.2l597.8 453.7V540.5z" style="fill-rule:evenodd;clip-rule:evenodd;fill:url(#c)"/></g></g></svg>